<?xml version="1.0" encoding="UTF-8"?>
<!DOCTYPE svg PUBLIC "-//W3C//DTD SVG 1.1//EN" "http://www.w3.org/Graphics/SVG/1.1/DTD/svg11.dtd">
<svg xmlns="http://www.w3.org/2000/svg" version="1.1" width="200px" height="39px" style="shape-rendering:geometricPrecision; text-rendering:geometricPrecision; image-rendering:optimizeQuality; fill-rule:evenodd; clip-rule:evenodd" xmlns:xlink="http://www.w3.org/1999/xlink">
<g><path style="opacity:1" fill="#f9faf9" d="M -0.5,-0.5 C 4.83333,-0.5 10.1667,-0.5 15.5,-0.5C 22.1091,2.7929 24.2758,8.12623 22,15.5C 18.9965,20.5576 14.4965,22.8909 8.5,22.5C 8.5,25.1667 8.5,27.8333 8.5,30.5C 5.5,30.5 2.5,30.5 -0.5,30.5C -0.5,20.1667 -0.5,9.83333 -0.5,-0.5 Z M 8.5,8.5 C 10.9484,8.01011 12.615,8.84344 13.5,11C 12.381,12.876 10.7144,13.7093 8.5,13.5C 8.5,11.8333 8.5,10.1667 8.5,8.5 Z"/></g>
<g><path style="opacity:1" fill="#f9faf9" d="M 32.5,-0.5 C 35.8333,-0.5 39.1667,-0.5 42.5,-0.5C 45.9335,9.70412 49.9335,19.7041 54.5,29.5C 51.1667,30.8333 47.8333,30.8333 44.5,29.5C 43.5487,25.6655 41.0487,23.9988 37,24.5C 35.1667,24.8333 33.3333,25.1667 31.5,25.5C 30.9264,27.0589 30.2598,28.5589 29.5,30C 26.1667,30.6667 22.8333,30.6667 19.5,30C 23.7389,19.7803 28.0722,9.61367 32.5,-0.5 Z M 36.5,12.5 C 39.3002,14.4756 38.9669,15.3089 35.5,15C 36.2524,14.3292 36.5858,13.4959 36.5,12.5 Z"/></g>
<g><path style="opacity:1" fill="#f9faf9" d="M 63.5,-0.5 C 67.5,-0.5 71.5,-0.5 75.5,-0.5C 85.649,4.70841 88.4823,12.7084 84,23.5C 81.6351,26.8691 78.4685,29.0357 74.5,30C 78,32.3342 81,35.1675 83.5,38.5C 79.1667,38.5 74.8333,38.5 70.5,38.5C 65.2286,33.7306 60.062,28.7306 55,23.5C 50.5177,12.7084 53.351,4.70841 63.5,-0.5 Z M 67.5,7.5 C 75.3394,8.18039 77.8394,12.1804 75,19.5C 71.3333,23.5 67.6667,23.5 64,19.5C 61.4576,14.3612 62.6243,10.3612 67.5,7.5 Z"/></g>
<g><path style="opacity:1" fill="#f9faf9" d="M 145.5,-0.5 C 147.167,-0.5 148.833,-0.5 150.5,-0.5C 150.5,9.83333 150.5,20.1667 150.5,30.5C 148.833,30.5 147.167,30.5 145.5,30.5C 145.5,20.1667 145.5,9.83333 145.5,-0.5 Z"/></g>
<g><path style="opacity:1" fill="#f9faf9" d="M 154.5,-0.5 C 156.167,-0.5 157.833,-0.5 159.5,-0.5C 159.5,9.83333 159.5,20.1667 159.5,30.5C 157.833,30.5 156.167,30.5 154.5,30.5C 154.5,20.1667 154.5,9.83333 154.5,-0.5 Z"/></g>
<g><path style="opacity:1" fill="#f9faf9" d="M 199.5,7.5 C 199.5,9.16667 199.5,10.8333 199.5,12.5C 197.167,12.5 194.833,12.5 192.5,12.5C 192.334,16.5138 192.501,20.5138 193,24.5C 195.163,25.768 197.33,25.768 199.5,24.5C 199.5,26.1667 199.5,27.8333 199.5,29.5C 192.425,32.2147 188.258,29.8814 187,22.5C 186.502,19.1832 186.335,15.8499 186.5,12.5C 185.5,12.5 184.5,12.5 183.5,12.5C 183.5,10.8333 183.5,9.16667 183.5,7.5C 184.5,7.5 185.5,7.5 186.5,7.5C 186.5,5.5 186.5,3.5 186.5,1.5C 188.5,1.5 190.5,1.5 192.5,1.5C 192.5,3.5 192.5,5.5 192.5,7.5C 194.833,7.5 197.167,7.5 199.5,7.5 Z"/></g>
<g><path style="opacity:1" fill="#f9faf9" d="M 86.5,7.5 C 88.4672,7.26057 90.3005,7.59391 92,8.5C 93.2838,13.0237 94.9504,17.357 97,21.5C 98.6423,16.9028 100.476,12.4028 102.5,8C 103.944,7.21948 105.277,7.38615 106.5,8.5C 107.854,13.0715 109.688,17.4049 112,21.5C 113.401,17.1292 114.901,12.7959 116.5,8.5C 118.045,7.54811 119.712,7.21478 121.5,7.5C 119.308,14.9099 116.808,22.2433 114,29.5C 112.506,30.7472 111.006,30.7472 109.5,29.5C 107.764,25.1259 105.931,20.7925 104,16.5C 102.333,20.8333 100.667,25.1667 99,29.5C 97.5064,30.7472 96.0064,30.7472 94.5,29.5C 91.6258,22.2078 88.9591,14.8745 86.5,7.5 Z"/></g>
<g><path style="opacity:1" fill="#f9faf9" d="M 127.5,7.5 C 132.447,6.62758 136.613,7.96091 140,11.5C 141.416,17.7145 141.916,24.0478 141.5,30.5C 139.234,30.8588 137.401,30.1922 136,28.5C 131.112,31.5968 126.778,30.9302 123,26.5C 121.973,22.8201 122.806,19.6534 125.5,17C 129.108,15.3385 132.775,15.0052 136.5,16C 132.715,10.2281 128.548,10.0615 124,15.5C 122.968,11.7361 124.134,9.0694 127.5,7.5 Z M 130.5,19.5 C 136.667,19.7696 137.667,21.9363 133.5,26C 129.494,26.9874 127.661,25.4874 128,21.5C 128.995,20.9341 129.828,20.2674 130.5,19.5 Z"/></g>
<g><path style="opacity:1" fill="#f9faf9" d="M 168.5,7.5 C 178.34,6.34207 183.007,10.6754 182.5,20.5C 177.456,20.1725 172.456,20.5059 167.5,21.5C 171.756,27.732 176.59,28.0653 182,22.5C 182.805,28.3628 180.139,31.0295 174,30.5C 166.355,30.524 162.188,26.6906 161.5,19C 161.956,13.905 164.289,10.0717 168.5,7.5 Z M 171.5,11.5 C 174.168,11.8337 176.168,13.1671 177.5,15.5C 174.167,16.8333 170.833,16.8333 167.5,15.5C 168.549,13.7844 169.882,12.4511 171.5,11.5 Z"/></g>
</svg>
