<?xml version="1.0" standalone="no"?>
<!DOCTYPE svg PUBLIC "-//W3C//DTD SVG 20010904//EN"
 "http://www.w3.org/TR/2001/REC-SVG-20010904/DTD/svg10.dtd">
<svg version="1.0" xmlns="http://www.w3.org/2000/svg"
 width="439.000000pt" height="600.000000pt" viewBox="0 0 439.000000 600.000000"
 preserveAspectRatio="xMidYMid meet">
<g transform="translate(0.000000,600.000000) scale(0.100000,-0.100000)"
fill="#000000" stroke="none">
<path d="M3240 5670 l0 -330 -300 0 -300 0 0 -70 0 -70 298 -2 297 -3 3 -437
2 -438 -1620 0 -1620 0 0 -2160 0 -2160 2195 0 2195 0 0 2160 0 2160 -500 0
-500 0 0 440 0 440 275 0 275 0 0 70 0 70 -275 0 -275 0 0 330 0 330 -75 0
-75 0 0 -330z m-2 -2298 l2 -833 73 3 72 3 3 833 2 832 443 -2 442 -3 0 -1010
0 -1010 -1060 0 -1060 0 -3 1000 c-1 550 0 1006 3 1013 3 10 117 12 542 10
l538 -3 3 -833z m-1599 279 c22 -43 55 -91 73 -106 33 -28 33 -28 150 -22 83
3 120 2 127 -7 6 -7 3 -39 -10 -91 -10 -44 -19 -96 -20 -115 0 -19 -4 -43 -8
-53 -6 -17 -8 -17 -26 3 -65 72 -187 66 -245 -10 -14 -19 -19 -20 -43 -9 -19
9 -26 17 -21 28 27 68 -2 156 -66 199 -29 20 -45 23 -93 20 -94 -7 -149 -65
-149 -159 0 -92 69 -159 162 -159 l43 0 -7 -32 c-4 -18 -10 -70 -13 -114 -6
-78 -5 -82 16 -89 29 -9 48 9 102 92 l42 64 21 -30 c45 -64 128 -87 202 -56
l36 15 -7 -33 c-17 -76 -69 -219 -115 -313 -91 -188 -231 -345 -395 -444 -91
-55 -95 -56 -95 -35 0 27 -23 65 -40 65 -10 0 -23 -13 -30 -31 l-13 -31 -13
32 c-19 44 -45 36 -64 -18 l-14 -42 -214 0 -214 0 20 33 c10 17 56 90 102 160
137 215 190 348 190 483 0 105 -13 137 -75 191 -79 68 -77 82 33 189 123 122
253 224 352 277 65 35 95 59 130 102 54 69 115 125 135 125 8 0 32 -33 54 -79z
m-100 -237 c76 -64 31 -194 -68 -194 -81 0 -135 71 -111 145 25 75 118 101
179 49z m348 -189 c33 -33 35 -39 30 -82 -9 -85 -90 -128 -165 -89 -26 13 -43
37 -55 78 -9 28 12 86 40 108 17 13 41 20 70 20 38 0 50 -5 80 -35z m-269 -83
c4 -27 -55 -125 -72 -119 -14 5 -9 117 6 135 18 21 62 11 66 -16z m-741 -122
c18 -10 45 -38 60 -61 24 -36 28 -52 27 -108 -1 -36 -9 -88 -18 -116 -42 -121
-171 -346 -392 -684 -91 -138 -176 -241 -200 -241 -42 0 -39 80 15 315 58 255
148 477 276 684 60 96 170 231 188 231 7 0 26 -9 44 -20z m-595 -1030 c-6
-157 -19 -235 -52 -296 -31 -59 -40 -136 -20 -173 17 -33 69 -46 181 -46 l106
0 119 59 c65 32 154 69 197 83 43 13 86 32 96 42 9 9 37 53 60 96 78 143 167
255 201 255 10 0 24 10 33 23 l15 22 21 -25 21 -25 20 24 c11 13 20 30 20 37
0 12 58 14 368 12 l367 -3 7 -450 c4 -247 7 -691 5 -985 l-2 -535 -970 0 -970
0 -3 975 c-1 536 0 981 3 988 3 9 28 12 92 10 l88 -3 -3 -85z m501 3 c-4 -94
7 -135 40 -141 12 -2 22 7 31 28 l13 32 11 -31 c7 -21 18 -31 31 -31 29 0 44
58 39 151 l-5 79 94 0 c51 0 93 -3 93 -6 0 -3 -13 -23 -29 -43 -16 -20 -70
-99 -119 -176 -49 -77 -103 -149 -120 -161 -16 -11 -56 -29 -88 -39 -33 -10
-107 -42 -165 -71 -125 -63 -187 -78 -262 -63 -60 12 -87 38 -87 82 0 26 21
51 143 171 132 129 215 225 246 284 10 19 20 22 75 22 l63 0 -4 -87z m89 55
c-5 -21 -6 -21 -12 -2 -8 21 -3 37 10 29 4 -3 6 -15 2 -27z m1338 -332 c0
-198 5 -389 11 -433 23 -167 91 -248 238 -283 74 -18 231 -8 298 17 l52 21 6
-77 c8 -107 23 -198 41 -253 21 -63 82 -130 146 -159 47 -21 67 -24 188 -24
147 0 190 12 253 71 16 14 29 24 31 23 2 -3 -60 -263 -117 -491 l-7 -28 -600
0 -600 0 0 985 0 985 30 0 30 0 0 -354z m448 -65 l-3 -419 -24 -26 c-45 -48
-112 -26 -131 42 -6 22 -10 190 -10 430 l0 392 85 0 86 0 -3 -419z m1620 -563
l-3 -983 -29 0 -30 0 -42 170 c-23 94 -81 331 -129 528 l-87 357 -176 -2 -176
-3 -26 -105 c-15 -61 -29 -99 -34 -92 -5 8 -45 12 -135 12 l-128 0 -6 -95 c-8
-138 -37 -180 -114 -160 -46 11 -56 57 -61 300 -7 354 17 445 114 421 34 -9
47 -41 54 -131 l5 -80 134 -3 134 -3 -5 93 c-9 179 -83 274 -236 307 -107 22
-232 9 -314 -34 l-48 -24 0 254 0 255 670 0 670 0 -2 -982z m-458 -358 c17
-102 33 -197 36 -212 l6 -28 -76 0 c-63 0 -76 3 -76 16 0 15 53 334 67 399 8
39 7 41 43 -175z m87 -534 c7 -44 10 -83 7 -88 -3 -4 -63 -8 -135 -8 -106 0
-129 3 -129 15 0 8 5 48 11 90 l12 76 111 -3 111 -3 12 -79z"/>
</g>
</svg>
